<?xml version="1.0"?>
<svg xmlns="http://www.w3.org/2000/svg" id="Layer_1" data-name="Layer 1" viewBox="0 0 64 64"><title>Icons8 RSL Colored Part 6</title><circle cx="33" cy="31" r="28" style="fill:#ed7899;"/><path d="M33,53A22,22,0,1,1,55,31,22,22,0,0,1,33,53Z" style="fill:#f283a5;"/><path d="M34,27a1,1,0,0,0-1-1,5,5,0,0,0-5,5,1,1,0,0,0,2,0,3,3,0,0,1,3-3A1,1,0,0,0,34,27Z" style="fill:#faefde;"/><path d="M37,30a1,1,0,0,0-1,1,3,3,0,0,1-3,3,1,1,0,0,0,0,2,5,5,0,0,0,5-5A1,1,0,0,0,37,30Z" style="fill:#faefde;"/><path d="M40.78,23.22a1,1,0,0,0-1.41,1.42,9,9,0,0,1,0,12.73,1,1,0,1,0,1.41,1.41,11,11,0,0,0,0-15.56Z" style="fill:#faefde;"/><path d="M45,19a1,1,0,0,0-1.41,1.41,15,15,0,0,1-.13,21.35,1,1,0,1,0,1.4,1.43A17,17,0,0,0,45,19Z" style="fill:#faefde;"/><path d="M49.26,14.74a1,1,0,0,0-1.41,1.41,21,21,0,0,1,0,29.7,1,1,0,1,0,1.41,1.41A23,23,0,0,0,49.26,14.74Z" style="fill:#faefde;"/><path d="M26.8,23.09a1,1,0,0,0-1.41,0,11,11,0,0,0-.16,15.71,1,1,0,0,0,1.41-1.41,9,9,0,0,1,.13-12.86A1,1,0,0,0,26.8,23.09Z" style="fill:#faefde;"/><path d="M18,31a14.88,14.88,0,0,1,4.53-10.74,1,1,0,0,0-1.4-1.43A17,17,0,0,0,21,43a1,1,0,0,0,1.41-1.41A14.9,14.9,0,0,1,18,31Z" style="fill:#faefde;"/><path d="M18.15,16.15l.14-.13a1,1,0,1,0-1.4-1.43l-.15.15a23,23,0,0,0,0,32.53,1,1,0,0,0,1.41-1.41A21,21,0,0,1,18.15,16.15Z" style="fill:#faefde;"/><path d="M33,54a1,1,0,0,0,1-1V51a1,1,0,0,0-2,0v2A1,1,0,0,0,33,54Z" style="fill:#8d6c9f;"/><path d="M37.6,52.53A1,1,0,0,0,39.53,52L39,50.08a1,1,0,0,0-1.93.52Z" style="fill:#8d6c9f;"/><path d="M21.75,51a1,1,0,0,0,1.37-.37l1-1.73a1,1,0,0,0-1.73-1l-1,1.73A1,1,0,0,0,21.75,51Z" style="fill:#8d6c9f;"/><path d="M42.88,50.62a1,1,0,0,0,1.73-1l-1-1.73a1,1,0,0,0-1.73,1Z" style="fill:#8d6c9f;"/><path d="M27.18,53.23a1,1,0,0,0,1.22-.71l.52-1.93A1,1,0,1,0,27,50.08L26.47,52A1,1,0,0,0,27.18,53.23Z" style="fill:#8d6c9f;"/><path d="M43.35,10.46a22.82,22.82,0,0,0-2.3-1,1,1,0,1,0-.7,1.87,21.2,21.2,0,0,1,2.1.92,1,1,0,1,0,.9-1.79Z" style="fill:#8d6c9f;"/><path d="M36.65,8.29a23.2,23.2,0,0,0-14,2.16,1,1,0,0,0,.9,1.79,21.17,21.17,0,0,1,12.79-2,1,1,0,1,0,.32-2Z" style="fill:#8d6c9f;"/><path d="M61.71,3.71a1,1,0,0,0-1.41-1.41L52.77,9.81a29,29,0,0,0-41,41L4.29,58.29a1,1,0,1,0,1.41,1.41l7.52-7.52a29,29,0,0,0,41-41ZM6,31A27,27,0,0,1,51.36,11.23L13.23,49.36A26.89,26.89,0,0,1,6,31Zm54,0A27,27,0,0,1,14.64,50.77L52.77,12.64A26.89,26.89,0,0,1,60,31Z" style="fill:#8d6c9f;"/></svg>
